<svg width="50" height="50" viewBox="0 0 50 50" fill="none" xmlns="http://www.w3.org/2000/svg">
<g clip-path="url(#clip0_92_71)">
<rect width="24.255" height="25.0012" transform="matrix(0.856944 0.51541 3.05617e-05 1 24.7861 0.000488281)" fill="#6E6E6E"/>
<rect width="24.255" height="25.0012" transform="matrix(0.856944 -0.51541 -3.05617e-05 1 4.00171 12.502)" fill="#5A5A5A"/>
<rect width="24.255" height="24.255" transform="matrix(0.856977 0.515354 -0.856977 0.515354 24.7861 25.0005)" fill="#AAAAAA"/>
<rect width="24.255" height="25.0012" transform="matrix(0.856944 0.51541 3.05617e-05 1 4.00049 12.498)" fill="#E0FBFC"/>
<rect width="24.255" height="25.0012" transform="matrix(0.856944 -0.51541 -3.05617e-05 1 24.7871 24.999)" fill="#3D5A80"/>
<rect width="24.255" height="24.255" transform="matrix(0.856977 -0.515354 0.856977 0.515354 4.00049 12.5005)" fill="#293241"/>
<path d="M35.2202 41.0479C32.4347 42.7232 30.3016 43.594 28.8207 43.6601C27.3751 43.705 26.6523 42.9762 26.6524 41.4736L26.6527 31.1391C26.6527 29.6366 27.3756 28.0383 28.8212 26.3443C30.3021 24.629 32.4353 22.9337 35.2208 21.2584C38.0063 19.5831 40.1218 18.723 41.5674 18.6781C43.0482 18.612 43.7886 19.3302 43.7886 20.8327L43.7885 22.8666L38.2881 26.1749L38.2882 23.9485C38.2882 22.7575 37.3186 22.7452 35.3794 23.9115C33.4401 25.0779 32.4705 26.2566 32.4704 27.4476L32.4701 38.1944C32.4701 39.3671 33.4397 39.3703 35.3789 38.2039C37.3182 37.0376 38.2878 35.868 38.2879 34.6953L38.2879 31.7544L43.7884 28.4462L43.7883 31.1672C43.7882 32.6698 43.0478 34.2786 41.5669 35.9939C40.1212 37.6879 38.0056 39.3726 35.2202 41.0479Z" fill="#E0FBFC"/>
<path d="M14.4136 41.1648C11.6512 39.5033 9.54477 37.8234 8.09446 36.125C6.64414 34.4083 5.91896 32.7698 5.91891 31.2094L5.91861 21.0763C5.91856 19.5159 6.64367 18.7588 8.09393 18.805C9.54419 18.8329 11.6505 19.6776 14.413 21.339C17.1755 23.0005 19.2818 24.6896 20.7322 26.4063C22.1825 28.1047 22.9076 29.734 22.9077 31.2944L22.9077 32.9465L17.521 29.7066L17.5209 27.8617C17.5209 26.5951 16.5367 25.3699 14.5685 24.1861C12.6002 23.0023 11.6161 23.0437 11.6162 24.3103L11.6165 34.8565C11.6165 36.1048 12.6007 37.3209 14.5689 38.5047C16.5372 39.6885 17.5213 39.6562 17.5212 38.4079L17.5211 34.6355L14.6723 32.9221L14.6722 30.1686L22.9078 35.1218L22.908 41.4275C22.9081 42.9879 22.1829 43.7541 20.7327 43.7263C19.2824 43.6801 17.1761 42.8263 14.4136 41.1648Z" fill="#EE6C4D"/>
<path fill-rule="evenodd" clip-rule="evenodd" d="M32.1209 16.9533C36.1691 14.5189 36.1691 10.5719 32.1209 8.13751C28.0728 5.70309 21.5094 5.70309 17.4612 8.13751C13.413 10.5719 13.413 14.5189 17.4612 16.9533C21.5094 19.3877 28.0728 19.3877 32.1209 16.9533ZM25.5514 13.003C25.9717 12.7503 25.9717 12.3405 25.5514 12.0877C25.1311 11.835 24.4496 11.835 24.0293 12.0877C23.609 12.3405 23.609 12.7503 24.0293 13.003C24.4496 13.2558 25.1311 13.2558 25.5514 13.003Z" fill="#EE6C4D"/>
</g>
<defs>
<clipPath id="clip0_92_71">
<rect width="50" height="50" fill="white" transform="translate(0 0.000488281)"/>
</clipPath>
</defs>
</svg>
