<svg width="200" height="50" viewBox="0 0 200 50" fill="none" xmlns="http://www.w3.org/2000/svg">
<rect width="25.0011" height="25.0011" transform="matrix(0.86601 0.500028 3.18351e-05 1 21.6519 0)" fill="#6E6E6E"/>
<rect width="25.0011" height="25.0011" transform="matrix(0.86601 -0.500028 -3.18351e-05 1 0.00170898 12.5015)" fill="#5A5A5A"/>
<rect width="25.0011" height="25.0011" transform="matrix(0.866041 0.499972 -0.866041 0.499972 21.6519 25)" fill="#AAAAAA"/>
<rect width="25.0011" height="25.0011" transform="matrix(0.86601 0.500028 3.18351e-05 1 0.000244141 12.498)" fill="#EE6C4D"/>
<rect width="25.0011" height="25.0011" transform="matrix(0.86601 -0.500028 -3.18351e-05 1 21.6533 24.9985)" fill="#3D5A80"/>
<rect width="25.0011" height="25.0011" transform="matrix(0.866041 -0.499972 0.866041 0.499972 0.000244141 12.5005)" fill="#293241"/>
<path d="M32.521 41.0479C29.6194 42.7232 27.3974 43.5939 25.8549 43.66C24.349 43.7049 23.5962 42.9761 23.5962 41.4736L23.5965 31.1391C23.5966 29.6366 24.3495 28.0383 25.8554 26.3443C27.398 24.629 29.6201 22.9338 32.5216 21.2584C35.4231 19.5831 37.6268 18.723 39.1326 18.6781C40.6752 18.612 41.4464 19.3302 41.4464 20.8327L41.4463 22.8666L35.7167 26.1749L35.7168 23.9485C35.7168 22.7575 34.7068 22.7452 32.6868 23.9115C30.6667 25.0779 29.6567 26.2566 29.6567 27.4476L29.6563 38.1944C29.6563 39.3671 30.6663 39.3703 32.6863 38.2039C34.7064 37.0375 35.7164 35.868 35.7164 34.6953L35.7165 31.7544L41.4461 28.4462L41.446 31.1672C41.446 32.6697 40.6747 34.2786 39.1321 35.9938C37.6262 37.6879 35.4225 39.3725 32.521 41.0479Z" fill="#E0FBFC"/>
<path d="M10.8466 41.1642C7.96909 39.5027 5.77495 37.8228 4.26422 36.1245C2.75348 34.4078 1.99809 32.7692 1.99804 31.2089L1.99771 21.0758C1.99766 19.5154 2.75298 18.7583 4.26366 18.8045C5.77435 18.8324 7.96846 19.677 10.846 21.3385C13.7235 23 15.9177 24.6891 17.4284 26.4058C18.9392 28.1041 19.6946 29.7335 19.6946 31.2938L19.6947 32.946L14.0834 29.7061L14.0834 27.8612C14.0833 26.5946 13.0582 25.3693 11.008 24.1855C8.95771 23.0017 7.9326 23.0432 7.93264 24.3098L7.93298 34.856C7.93302 36.1042 8.95816 37.3203 11.0084 38.5041C13.0587 39.6879 14.0838 39.6556 14.0837 38.4074L14.0836 34.635L11.1161 32.9216L11.1161 30.168L19.6947 35.1213L19.6949 41.4269C19.695 42.9873 18.9397 43.7535 17.429 43.7257C15.9183 43.6795 13.7242 42.8257 10.8466 41.1642Z" fill="#E0FBFC"/>
<path fill-rule="evenodd" clip-rule="evenodd" d="M29.2927 16.9533C33.5095 14.5189 33.5095 10.5719 29.2927 8.13752C25.0759 5.70311 18.239 5.70312 14.0222 8.13752C9.80538 10.5719 9.80538 14.5189 14.0222 16.9533C18.239 19.3877 25.0759 19.3877 29.2927 16.9533ZM22.4498 13.003C22.8876 12.7503 22.8876 12.3405 22.4498 12.0878C22.012 11.835 21.3022 11.835 20.8643 12.0878C20.4265 12.3405 20.4265 12.7503 20.8643 13.0031C21.3022 13.2558 22.012 13.2558 22.4498 13.003Z" fill="#EE6C4D"/>
<path d="M61.4115 29.194C60.6415 29.546 59.8715 29.7 59.0575 29.7C56.4615 29.7 54.7015 27.896 54.7015 25.3C54.7015 22.638 56.4615 20.9 59.1015 20.9C60.5755 20.9 61.7855 21.45 62.8415 22.616L65.6135 20.108C64.0955 18.282 61.7635 17.292 58.8815 17.292C53.8875 17.292 50.3015 20.614 50.3015 25.3C50.3015 29.986 53.8875 33.308 58.7935 33.308C61.0375 33.308 63.4795 32.626 65.2615 31.35V24.97H61.4115V29.194ZM71.8072 22.506V21.076H67.8252V33H72.0052V27.522C72.0052 25.432 73.1712 24.574 74.8652 24.574C75.1732 24.574 75.4372 24.596 75.8112 24.64V20.878C74.0512 20.878 72.6652 21.428 71.8072 22.506ZM83.4127 33.198C87.3507 33.198 90.1447 30.624 90.1447 27.016C90.1447 23.43 87.3507 20.878 83.4127 20.878C79.5187 20.878 76.6807 23.43 76.6807 27.016C76.6807 30.624 79.5187 33.198 83.4127 33.198ZM83.4127 29.876C82.0047 29.876 80.9047 28.842 80.9047 27.016C80.9047 25.212 82.0047 24.2 83.4127 24.2C84.8427 24.2 85.9207 25.212 85.9207 27.016C85.9207 28.842 84.8427 29.876 83.4127 29.876ZM98.0651 33.198C102.003 33.198 104.797 30.624 104.797 27.016C104.797 23.43 102.003 20.878 98.0651 20.878C94.1711 20.878 91.3331 23.43 91.3331 27.016C91.3331 30.624 94.1711 33.198 98.0651 33.198ZM98.0651 29.876C96.6571 29.876 95.5571 28.842 95.5571 27.016C95.5571 25.212 96.6571 24.2 98.0651 24.2C99.4951 24.2 100.573 25.212 100.573 27.016C100.573 28.842 99.4951 29.876 98.0651 29.876ZM114.991 21.076L111.977 28.358L109.117 21.076H104.827L109.733 33H114.045L118.973 21.076H114.991ZM131.919 27.06C131.919 23.122 129.059 20.878 125.539 20.878C121.777 20.878 118.983 23.43 118.983 27.016C118.983 30.58 121.733 33.198 125.979 33.198C128.245 33.198 129.917 32.538 131.061 31.262L128.861 28.974C128.047 29.678 127.277 30.008 126.111 30.008C124.571 30.008 123.537 29.304 123.185 28.094H131.853C131.875 27.764 131.919 27.368 131.919 27.06ZM125.561 23.848C126.859 23.848 127.783 24.64 128.003 25.894H123.119C123.361 24.64 124.263 23.848 125.561 23.848Z" fill="#EE6C4D"/>
<path d="M145.925 33.308C148.763 33.308 151.051 32.274 152.547 30.404L149.775 27.896C148.807 29.062 147.619 29.7 146.145 29.7C143.615 29.7 141.855 27.94 141.855 25.3C141.855 22.66 143.615 20.9 146.145 20.9C147.619 20.9 148.807 21.538 149.775 22.704L152.547 20.196C151.051 18.326 148.763 17.292 145.925 17.292C141.041 17.292 137.455 20.614 137.455 25.3C137.455 29.986 141.041 33.308 145.925 33.308ZM158.273 22.506V21.076H154.291V33H158.471V27.522C158.471 25.432 159.637 24.574 161.331 24.574C161.639 24.574 161.903 24.596 162.277 24.64V20.878C160.517 20.878 159.131 21.428 158.273 22.506ZM168.998 20.878C167.128 20.878 165.104 21.362 163.74 22.264L165.148 25.102C165.962 24.464 167.238 24.068 168.382 24.068C170.032 24.068 170.846 24.75 170.912 25.96H168.536C164.84 25.96 163.234 27.324 163.234 29.524C163.234 31.592 164.818 33.198 167.678 33.198C169.416 33.198 170.604 32.604 171.198 31.46V33H175.092V26.378C175.092 22.594 172.87 20.878 168.998 20.878ZM168.844 30.558C167.854 30.558 167.282 30.052 167.282 29.348C167.282 28.622 167.766 28.138 169.108 28.138H170.912V29.172C170.582 30.118 169.768 30.558 168.844 30.558ZM184.925 29.59C184.573 29.832 184.111 29.964 183.649 29.964C182.901 29.964 182.395 29.48 182.395 28.6V24.64H185.123V21.516H182.395V18.414H178.215V21.516H176.477V24.64H178.215V28.644C178.215 31.702 179.997 33.198 183.055 33.198C184.155 33.198 185.233 32.978 185.959 32.516L184.925 29.59ZM199.415 27.06C199.415 23.122 196.555 20.878 193.035 20.878C189.273 20.878 186.479 23.43 186.479 27.016C186.479 30.58 189.229 33.198 193.475 33.198C195.741 33.198 197.413 32.538 198.557 31.262L196.357 28.974C195.543 29.678 194.773 30.008 193.607 30.008C192.067 30.008 191.033 29.304 190.681 28.094H199.349C199.371 27.764 199.415 27.368 199.415 27.06ZM193.057 23.848C194.355 23.848 195.279 24.64 195.499 25.894H190.615C190.857 24.64 191.759 23.848 193.057 23.848Z" fill="#293241"/>
</svg>
