<svg width="50" height="50" viewBox="0 0 50 50" fill="none" xmlns="http://www.w3.org/2000/svg">
<g clip-path="url(#clip0_92_185)">
<rect width="25.0013" height="25.0013" transform="matrix(0.86601 0.500028 3.18351e-05 1 24.6521 0.000488281)" fill="#6E6E6E"/>
<rect width="25.0013" height="25.0013" transform="matrix(0.86601 -0.500028 -3.18351e-05 1 3.00073 12.502)" fill="#5A5A5A"/>
<rect width="25.0013" height="25.0013" transform="matrix(0.866041 0.499972 -0.866041 0.499972 24.6521 25.0005)" fill="#AAAAAA"/>
<rect width="25.0013" height="25.0013" transform="matrix(0.86601 0.500028 3.18351e-05 1 3 12.498)" fill="#E0FBFC"/>
<rect width="25.0013" height="25.0013" transform="matrix(0.86601 -0.500028 -3.18351e-05 1 24.6526 24.9995)" fill="#3D5A80"/>
<rect width="25.0013" height="25.0013" transform="matrix(0.866041 -0.499972 0.866041 0.499972 3 12.5005)" fill="#EE6C4D"/>
<path d="M35.5196 41.048C32.618 42.7233 30.396 43.594 28.8534 43.6601C27.3476 43.705 26.5947 42.9762 26.5947 41.4737L26.5951 31.1391C26.5951 29.6366 27.3481 28.0383 28.854 26.3443C30.3966 24.629 32.6187 22.9337 35.5202 21.2584C38.4217 19.5831 40.6254 18.723 42.1313 18.678C43.6738 18.6119 44.4451 19.3301 44.445 20.8327L44.445 22.8666L38.7154 26.1749L38.7154 23.9485C38.7155 22.7575 37.7054 22.7452 35.6854 23.9115C33.6653 25.0779 32.6553 26.2566 32.6552 27.4476L32.6549 38.1945C32.6549 39.3672 33.6649 39.3704 35.6849 38.204C37.705 37.0376 38.715 35.8681 38.7151 34.6954L38.7152 31.7544L44.4448 28.4462L44.4447 31.1672C44.4447 32.6698 43.6733 34.2787 42.1307 35.9939C40.6248 37.688 38.4211 39.3726 35.5196 41.048Z" fill="#E0FBFC"/>
<path d="M13.846 41.1649C10.9684 39.5034 8.77425 37.8235 7.2635 36.1251C5.75275 34.4084 4.99735 32.7699 4.9973 31.2095L4.99698 21.0763C4.99693 19.5159 5.75225 18.7588 7.26295 18.8051C8.77365 18.8329 10.9678 19.6776 13.8453 21.3391C16.7229 23.0005 18.9171 24.6896 20.4278 26.4063C21.9386 28.1047 22.694 29.7341 22.694 31.2944L22.6941 32.9466L17.0828 29.7067L17.0828 27.8618C17.0827 26.5951 16.0576 25.3699 14.0073 24.1861C11.957 23.0023 10.9319 23.0437 10.932 24.3104L10.9323 34.8566C10.9323 36.1049 11.9575 37.3209 14.0078 38.5047C16.058 39.6886 17.0831 39.6563 17.0831 38.408L17.083 34.6356L14.1155 32.9222L14.1154 30.1686L22.6941 35.1219L22.6943 41.4276C22.6944 42.988 21.9391 43.7543 20.4284 43.7264C18.9177 43.6802 16.7235 42.8264 13.846 41.1649Z" fill="#EE6C4D"/>
<path fill-rule="evenodd" clip-rule="evenodd" d="M32.2912 16.9528C36.508 14.5184 36.508 10.5714 32.2912 8.137C28.0743 5.70257 21.2374 5.70257 17.0206 8.137C12.8037 10.5714 12.8037 14.5184 17.0206 16.9528C21.2374 19.3873 28.0743 19.3873 32.2912 16.9528ZM25.4489 13.0027C25.8867 12.7499 25.8867 12.3401 25.4489 12.0874C25.011 11.8346 24.3012 11.8346 23.8634 12.0874C23.4256 12.3401 23.4256 12.7499 23.8634 13.0027C24.3012 13.2554 25.011 13.2554 25.4489 13.0027Z" fill="#293241"/>
</g>
<defs>
<clipPath id="clip0_92_185">
<rect width="50" height="50" fill="white" transform="translate(0 0.000488281)"/>
</clipPath>
</defs>
</svg>
