<svg width="50" height="50" viewBox="0 0 50 50" fill="none" xmlns="http://www.w3.org/2000/svg">
<g clip-path="url(#clip0_92_269)">
<path fill-rule="evenodd" clip-rule="evenodd" d="M46.3039 12.4976L24.6524 24.999L24.6516 50.0004L46.3031 37.499L46.3039 12.4976ZM28.8533 43.6603C30.3959 43.5942 32.618 42.7234 35.5195 41.0481C38.4211 39.3728 40.6248 37.6881 42.1307 35.994C43.6733 34.2788 44.4447 32.6699 44.4447 31.1673L44.4448 28.4462L38.7151 31.7545L38.7151 34.6955C38.715 35.8682 37.705 37.0377 35.6849 38.2041C33.6648 39.3705 32.6548 39.3673 32.6548 38.1946L32.6552 27.4477C32.6552 26.2566 33.6653 25.0779 35.6853 23.9115C37.7054 22.7452 38.7154 22.7575 38.7154 23.9486L38.7153 26.1749L44.445 22.8666L44.445 20.8327C44.4451 19.3301 43.6738 18.6119 42.1313 18.678C40.6254 18.7229 38.4217 19.5831 35.5202 21.2584C32.6186 22.9337 30.3965 24.629 28.8539 26.3443C27.348 28.0383 26.595 29.6366 26.595 31.1392L26.5946 41.4738C26.5946 42.9764 27.3475 43.7052 28.8533 43.6603Z" fill="#E0FBFC"/>
<path fill-rule="evenodd" clip-rule="evenodd" d="M24.6515 24.9985L3 12.4971L3.0008 37.4985L24.6523 49.9999L24.6515 24.9985ZM7.26364 36.1244C8.7744 37.8228 10.9686 39.5027 13.8462 41.1642C16.7237 42.8257 18.9179 43.6795 20.4286 43.7257C21.9393 43.7536 22.6946 42.9873 22.6946 41.4269L22.6944 35.1212L14.1156 30.1678L14.1157 32.9214L17.0832 34.6349L17.0833 38.4073C17.0833 39.6556 16.0582 39.6879 14.0079 38.504C11.9577 37.3202 10.9325 36.1042 10.9325 34.8559L10.9321 24.3096C10.9321 23.0429 11.9572 23.0015 14.0075 24.1853C16.0578 25.3691 17.0829 26.5943 17.083 27.861L17.083 29.7059L22.6943 32.9458L22.6943 31.2937C22.6942 29.7333 21.9388 28.1039 20.4281 26.4056C18.9173 24.6888 16.7231 22.9997 13.8455 21.3382C10.9679 19.6767 8.7738 18.8321 7.26309 18.8042C5.75239 18.758 4.99706 19.5151 4.99711 21.0755L4.99743 31.2087C4.99748 32.7691 5.75288 34.4077 7.26364 36.1244Z" fill="#E0FBFC"/>
<path fill-rule="evenodd" clip-rule="evenodd" d="M24.6523 0.000488281L3 12.5005L24.6523 25.0006L46.3046 12.5005L24.6523 0.000488281ZM32.2913 8.13744C36.5082 10.5719 36.5082 14.5189 32.2913 16.9533C28.0744 19.3878 21.2375 19.3878 17.0206 16.9533C12.8037 14.5189 12.8037 10.5719 17.0206 8.13744C21.2375 5.703 28.0744 5.703 32.2913 8.13744ZM25.4487 12.0879C25.8865 12.3407 25.8865 12.7505 25.4487 13.0032C25.0109 13.256 24.301 13.256 23.8632 13.0032C23.4254 12.7505 23.4254 12.3407 23.8632 12.0879C24.301 11.8352 25.0109 11.8352 25.4487 12.0879Z" fill="#E0FBFC"/>
</g>
<defs>
<clipPath id="clip0_92_269">
<rect width="50" height="50" fill="white" transform="translate(0 0.000488281)"/>
</clipPath>
</defs>
</svg>
