<svg width="100" height="90" viewBox="0 0 100 90" fill="none" xmlns="http://www.w3.org/2000/svg">
<g clip-path="url(#clip0_92_399)">
<path d="M20.3824 64.194C19.6124 64.546 18.8424 64.7 18.0284 64.7C15.4324 64.7 13.6724 62.896 13.6724 60.3C13.6724 57.638 15.4324 55.9 18.0724 55.9C19.5464 55.9 20.7564 56.45 21.8124 57.616L24.5844 55.108C23.0664 53.282 20.7344 52.292 17.8524 52.292C12.8584 52.292 9.27241 55.614 9.27241 60.3C9.27241 64.986 12.8584 68.308 17.7644 68.308C20.0084 68.308 22.4504 67.626 24.2324 66.35V59.97H20.3824V64.194ZM30.7781 57.506V56.076H26.7961V68H30.9761V62.522C30.9761 60.432 32.1421 59.574 33.8361 59.574C34.1441 59.574 34.4081 59.596 34.7821 59.64V55.878C33.0221 55.878 31.6361 56.428 30.7781 57.506ZM42.3836 68.198C46.3216 68.198 49.1156 65.624 49.1156 62.016C49.1156 58.43 46.3216 55.878 42.3836 55.878C38.4896 55.878 35.6516 58.43 35.6516 62.016C35.6516 65.624 38.4896 68.198 42.3836 68.198ZM42.3836 64.876C40.9756 64.876 39.8756 63.842 39.8756 62.016C39.8756 60.212 40.9756 59.2 42.3836 59.2C43.8136 59.2 44.8916 60.212 44.8916 62.016C44.8916 63.842 43.8136 64.876 42.3836 64.876ZM57.036 68.198C60.974 68.198 63.768 65.624 63.768 62.016C63.768 58.43 60.974 55.878 57.036 55.878C53.142 55.878 50.304 58.43 50.304 62.016C50.304 65.624 53.142 68.198 57.036 68.198ZM57.036 64.876C55.628 64.876 54.528 63.842 54.528 62.016C54.528 60.212 55.628 59.2 57.036 59.2C58.466 59.2 59.544 60.212 59.544 62.016C59.544 63.842 58.466 64.876 57.036 64.876ZM73.962 56.076L70.948 63.358L68.088 56.076H63.798L68.704 68H73.016L77.944 56.076H73.962ZM90.8904 62.06C90.8904 58.122 88.0304 55.878 84.5104 55.878C80.7484 55.878 77.9544 58.43 77.9544 62.016C77.9544 65.58 80.7044 68.198 84.9504 68.198C87.2164 68.198 88.8884 67.538 90.0324 66.262L87.8324 63.974C87.0184 64.678 86.2484 65.008 85.0824 65.008C83.5424 65.008 82.5084 64.304 82.1564 63.094H90.8244C90.8464 62.764 90.8904 62.368 90.8904 62.06ZM84.5324 58.848C85.8304 58.848 86.7544 59.64 86.9744 60.894H82.0904C82.3324 59.64 83.2344 58.848 84.5324 58.848Z" fill="#EE6C4D"/>
<path d="M27.5715 88.308C30.4095 88.308 32.6975 87.274 34.1935 85.404L31.4215 82.896C30.4535 84.062 29.2655 84.7 27.7915 84.7C25.2615 84.7 23.5015 82.94 23.5015 80.3C23.5015 77.66 25.2615 75.9 27.7915 75.9C29.2655 75.9 30.4535 76.538 31.4215 77.704L34.1935 75.196C32.6975 73.326 30.4095 72.292 27.5715 72.292C22.6875 72.292 19.1015 75.614 19.1015 80.3C19.1015 84.986 22.6875 88.308 27.5715 88.308ZM39.9197 77.506V76.076H35.9377V88H40.1177V82.522C40.1177 80.432 41.2837 79.574 42.9777 79.574C43.2857 79.574 43.5497 79.596 43.9237 79.64V75.878C42.1637 75.878 40.7777 76.428 39.9197 77.506ZM50.6447 75.878C48.7747 75.878 46.7507 76.362 45.3867 77.264L46.7947 80.102C47.6087 79.464 48.8847 79.068 50.0287 79.068C51.6787 79.068 52.4927 79.75 52.5587 80.96H50.1827C46.4867 80.96 44.8807 82.324 44.8807 84.524C44.8807 86.592 46.4647 88.198 49.3247 88.198C51.0627 88.198 52.2507 87.604 52.8447 86.46V88H56.7387V81.378C56.7387 77.594 54.5167 75.878 50.6447 75.878ZM50.4907 85.558C49.5007 85.558 48.9287 85.052 48.9287 84.348C48.9287 83.622 49.4127 83.138 50.7547 83.138H52.5587V84.172C52.2287 85.118 51.4147 85.558 50.4907 85.558ZM66.5712 84.59C66.2192 84.832 65.7572 84.964 65.2952 84.964C64.5472 84.964 64.0412 84.48 64.0412 83.6V79.64H66.7692V76.516H64.0412V73.414H59.8612V76.516H58.1232V79.64H59.8612V83.644C59.8612 86.702 61.6432 88.198 64.7012 88.198C65.8012 88.198 66.8792 87.978 67.6052 87.516L66.5712 84.59ZM81.0613 82.06C81.0613 78.122 78.2013 75.878 74.6813 75.878C70.9193 75.878 68.1253 78.43 68.1253 82.016C68.1253 85.58 70.8753 88.198 75.1213 88.198C77.3873 88.198 79.0593 87.538 80.2033 86.262L78.0033 83.974C77.1893 84.678 76.4193 85.008 75.2533 85.008C73.7133 85.008 72.6793 84.304 72.3273 83.094H80.9953C81.0173 82.764 81.0613 82.368 81.0613 82.06ZM74.7033 78.848C76.0013 78.848 76.9253 79.64 77.1453 80.894H72.2613C72.5033 79.64 73.4053 78.848 74.7033 78.848Z" fill="#293241"/>
<rect width="25.0011" height="25.0011" transform="matrix(0.86601 0.500028 3.18351e-05 1 49.6519 2)" fill="#6E6E6E"/>
<rect width="25.0011" height="25.0011" transform="matrix(0.86601 -0.500028 -3.18351e-05 1 28.0017 14.5015)" fill="#5A5A5A"/>
<rect width="25.0011" height="25.0011" transform="matrix(0.866041 0.499972 -0.866041 0.499972 49.6519 27)" fill="#AAAAAA"/>
<rect width="25.0011" height="25.0011" transform="matrix(0.86601 0.500028 3.18351e-05 1 28.0002 14.498)" fill="#EE6C4D"/>
<rect width="25.0011" height="25.0011" transform="matrix(0.86601 -0.500028 -3.18351e-05 1 49.6533 26.9985)" fill="#3D5A80"/>
<rect width="25.0011" height="25.0011" transform="matrix(0.866041 -0.499972 0.866041 0.499972 28.0002 14.5005)" fill="#293241"/>
<path d="M60.521 43.0479C57.6194 44.7232 55.3974 45.5939 53.8549 45.66C52.349 45.7049 51.5962 44.9761 51.5962 43.4736L51.5965 33.1391C51.5966 31.6366 52.3495 30.0383 53.8554 28.3443C55.398 26.629 57.6201 24.9338 60.5216 23.2584C63.4231 21.5831 65.6268 20.723 67.1326 20.6781C68.6752 20.612 69.4464 21.3302 69.4464 22.8327L69.4463 24.8666L63.7167 28.1749L63.7168 25.9485C63.7168 24.7575 62.7068 24.7452 60.6868 25.9115C58.6667 27.0779 57.6567 28.2566 57.6567 29.4476L57.6563 40.1944C57.6563 41.3671 58.6663 41.3703 60.6863 40.2039C62.7064 39.0375 63.7164 37.868 63.7164 36.6953L63.7165 33.7544L69.4461 30.4462L69.446 33.1672C69.446 34.6697 68.6747 36.2786 67.1321 37.9938C65.6262 39.6879 63.4225 41.3725 60.521 43.0479Z" fill="#E0FBFC"/>
<path d="M38.8466 43.1642C35.9691 41.5027 33.775 39.8228 32.2642 38.1245C30.7535 36.4078 29.9981 34.7692 29.998 33.2089L29.9977 23.0758C29.9977 21.5154 30.753 20.7583 32.2637 20.8045C33.7743 20.8324 35.9685 21.677 38.846 23.3385C41.7235 25 43.9177 26.6891 45.4284 28.4058C46.9392 30.1041 47.6946 31.7335 47.6946 33.2938L47.6947 34.946L42.0834 31.7061L42.0834 29.8612C42.0833 28.5946 41.0582 27.3693 39.008 26.1855C36.9577 25.0017 35.9326 25.0432 35.9326 26.3098L35.933 36.856C35.933 38.1042 36.9582 39.3203 39.0084 40.5041C41.0587 41.6879 42.0838 41.6556 42.0837 40.4074L42.0836 36.635L39.1161 34.9216L39.1161 32.168L47.6947 37.1213L47.6949 43.4269C47.695 44.9873 46.9397 45.7535 45.429 45.7257C43.9183 45.6795 41.7242 44.8257 38.8466 43.1642Z" fill="#E0FBFC"/>
<path fill-rule="evenodd" clip-rule="evenodd" d="M57.2927 18.9533C61.5095 16.5189 61.5095 12.5719 57.2927 10.1375C53.0759 7.70311 46.239 7.70312 42.0222 10.1375C37.8054 12.5719 37.8054 16.5189 42.0222 18.9533C46.239 21.3877 53.0759 21.3877 57.2927 18.9533ZM50.4498 15.003C50.8876 14.7503 50.8876 14.3405 50.4498 14.0878C50.012 13.835 49.3022 13.835 48.8643 14.0878C48.4265 14.3405 48.4265 14.7503 48.8643 15.0031C49.3022 15.2558 50.012 15.2558 50.4498 15.003Z" fill="#EE6C4D"/>
</g>
<defs>
<clipPath id="clip0_92_399">
<rect width="100" height="90" fill="white"/>
</clipPath>
</defs>
</svg>
